<?xml version="1.0" encoding="UTF-8" standalone="no"?>
<svg width="100px" height="100px" viewBox="0 0 100 100" version="1.1" xmlns="http://www.w3.org/2000/svg" xmlns:xlink="http://www.w3.org/1999/xlink">
    <!-- Generator: Sketch 39.1 (31720) - http://www.bohemiancoding.com/sketch -->
    <title>Artboard 4 Copy</title>
    <desc>Created with Sketch.</desc>
    <defs></defs>
    <g id="material" stroke="none" stroke-width="1" fill="none" fill-rule="evenodd">
        <g id="Artboard-4-Copy" fill="#FFFFFF">
            <g id="car" transform="translate(1.000000, 23.000000)">
                <g id="Capa_1">
                    <g id="Group">
                        <path d="M20.2487983,38.5395581 C17.3136876,38.5395581 14.925974,40.9165628 14.925974,43.8385093 C14.925974,46.7604558 17.3136876,49.1374605 20.2487983,49.1374605 C23.1839089,49.1374605 25.5716226,46.7602442 25.5716226,43.8385093 C25.5716226,40.9167744 23.1839089,38.5395581 20.2487983,38.5395581 L20.2487983,38.5395581 Z M20.2487983,45.9630419 C19.0719479,45.9630419 18.1146941,45.0098698 18.1146941,43.8385093 C18.1146941,42.6671488 19.0719479,41.7139767 20.2487983,41.7139767 C21.4256486,41.7139767 22.3829024,42.6669372 22.3829024,43.8385093 C22.3829024,45.0100814 21.4256486,45.9630419 20.2487983,45.9630419 L20.2487983,45.9630419 Z" id="Shape"></path>
                        <path d="M75.8940911,38.5395581 C72.9589805,38.5395581 70.5710542,40.9165628 70.5710542,43.8385093 C70.5710542,46.7604558 72.9589805,49.1374605 75.8940911,49.1374605 C78.8289892,49.1374605 81.2167028,46.7602442 81.2167028,43.8385093 C81.2167028,40.9167744 78.8289892,38.5395581 75.8940911,38.5395581 L75.8940911,38.5395581 Z M75.8940911,45.9630419 C74.7172408,45.9630419 73.7597744,45.0098698 73.7597744,43.8385093 C73.7597744,42.6671488 74.7172408,41.7139767 75.8940911,41.7139767 C77.0707289,41.7139767 78.0279826,42.6669372 78.0279826,43.8385093 C78.0279826,45.0100814 77.0707289,45.9630419 75.8940911,45.9630419 L75.8940911,45.9630419 Z" id="Shape"></path>
                        <path d="M86.994026,20.1937465 L72.7687202,18.5758512 L65.17659,6.2895814 C62.8583905,2.53784186 58.6694751,0.207183721 54.2448069,0.207183721 L28.4170239,0.207183721 C20.9926204,0.207183721 14.430872,5.18424884 12.4600304,12.3108186 L12.2585033,13.0398767 C11.279141,16.5810465 8.46498915,19.3997186 4.91403037,20.396486 C2.02079826,21.208714 0,23.865914 0,26.8585442 L0,44.4262 C0,45.3027628 0.713848156,46.0134093 1.59436009,46.0134093 L9.790859,46.0134093 C10.8021085,50.8381023 15.1066681,54.4738698 20.2487983,54.4738698 C25.3909284,54.4738698 29.6954881,50.8381023 30.7067375,46.0134093 L65.4361518,46.0134093 C66.4474013,50.8381023 70.751961,54.4738698 75.8940911,54.4738698 C81.0362213,54.4738698 85.3407809,50.8381023 86.3520304,46.0134093 L94.9566855,46.0134093 C95.7672581,46.0134093 96.4490065,45.4079419 96.5408416,44.6060837 L97.7895445,33.7108442 C98.5556876,27.0227674 93.7130846,20.958993 86.994026,20.1937465 L86.994026,20.1937465 Z M3.18872017,40.9104256 L9.98048156,40.9104256 C9.80127549,41.5321884 9.67649024,42.1765953 9.61399132,42.8389907 L3.18872017,42.8389907 L3.18872017,40.9104256 L3.18872017,40.9104256 Z M20.2487983,51.2994512 C16.1162169,51.2994512 12.754243,47.9525558 12.754243,43.8385093 C12.754243,39.7244628 16.1162169,36.3773558 20.2487983,36.3773558 C24.3813796,36.3773558 27.7433536,39.7244628 27.7433536,43.8385093 C27.7433536,47.9525558 24.3813796,51.2994512 20.2487983,51.2994512 L20.2487983,51.2994512 Z M75.8940911,51.2994512 C71.7615098,51.2994512 68.3995358,47.9525558 68.3995358,43.8385093 C68.3995358,39.7244628 71.7615098,36.3773558 75.8940911,36.3773558 C80.0266725,36.3773558 83.3886464,39.7244628 83.3886464,43.8385093 C83.3886464,47.9525558 80.0266725,51.2994512 75.8940911,51.2994512 L75.8940911,51.2994512 Z M75.8940911,33.2029372 C72.2829718,33.2029372 69.0870239,34.9975419 67.152321,37.736007 L38.7801518,37.736007 C37.8996399,37.736007 37.1857918,38.4466535 37.1857918,39.3232163 C37.1857918,40.1997791 37.8996399,40.9104256 38.7801518,40.9104256 L65.6257744,40.9104256 C65.4465683,41.5321884 65.3217831,42.1765953 65.2592842,42.8389907 L30.8836052,42.8389907 C30.3757484,37.4416326 25.8009978,33.2029372 20.2487983,33.2029372 C16.637679,33.2029372 13.441731,34.9975419 11.5070282,37.736007 L3.18872017,37.736007 L3.18872017,26.8585442 C3.18872017,25.2808581 4.25417787,23.8798814 5.77944902,23.4517581 C10.3984165,22.1553256 14.0588547,18.4886605 15.3328547,13.8823674 L15.5343818,13.1533093 C17.1253406,7.39999302 22.4230803,3.38160233 28.4170239,3.38160233 L54.2448069,3.38160233 C57.5702169,3.38160233 60.7183341,5.13324651 62.4604382,7.95276512 L70.4590239,20.8967744 C70.7156095,21.3119884 71.1497007,21.5866814 71.6360868,21.6421279 L86.6317874,23.3476372 C90.0335141,23.7351279 92.7845293,25.9580674 94.0019826,28.9083721 L89.0248156,28.9083721 C88.1443037,28.9083721 87.4304555,29.6190186 87.4304555,30.4955814 C87.4304555,31.3721442 88.1443037,32.0827907 89.0248156,32.0827907 L94.6748026,32.0827907 C94.6858568,32.5007558 94.6699132,32.9240116 94.6210195,33.3510767 L94.1184772,37.736007 L84.6356486,37.736007 C82.7011584,34.9975419 79.5049978,33.2029372 75.8940911,33.2029372 L75.8940911,33.2029372 Z M86.5286855,42.8389907 C86.4663991,42.1765953 86.3414013,41.5321884 86.1621952,40.9104256 L93.7547505,40.9104256 L93.5336659,42.8389907 L86.5286855,42.8389907 L86.5286855,42.8389907 Z" id="Shape"></path>
                        <path d="M54.3283514,24.1725628 L50.9780694,24.1725628 C50.0975575,24.1725628 49.3837093,24.8832093 49.3837093,25.7597721 C49.3837093,26.6363349 50.0975575,27.3469814 50.9780694,27.3469814 L54.3283514,27.3469814 C55.2088633,27.3469814 55.9227115,26.6363349 55.9227115,25.7597721 C55.9227115,24.8832093 55.2090759,24.1725628 54.3283514,24.1725628 L54.3283514,24.1725628 Z" id="Shape"></path>
                        <path d="M32.9173709,25.7597721 C32.9173709,24.8832093 32.2035228,24.1725628 31.3230108,24.1725628 L27.9727289,24.1725628 C27.0922169,24.1725628 26.3783688,24.8832093 26.3783688,25.7597721 C26.3783688,26.6363349 27.0922169,27.3469814 27.9727289,27.3469814 L31.3230108,27.3469814 C32.2035228,27.3469814 32.9173709,26.6363349 32.9173709,25.7597721 L32.9173709,25.7597721 Z" id="Shape"></path>
                        <path d="M34.8922516,38.7154209 C34.6129197,38.0566233 33.9020477,37.6426791 33.1862863,37.7533605 C32.5381258,37.8536721 32.0124121,38.3391465 31.8655184,38.9757233 C31.5474967,40.3534209 33.1518482,41.4229884 34.3187072,40.6325581 C34.936256,40.2143814 35.1771106,39.4021535 34.8922516,38.7154209 C34.8518612,38.6201884 34.9326421,38.8127698 34.8922516,38.7154209 L34.8922516,38.7154209 Z" id="Shape"></path>
                        <path d="M60.8012408,8.9711186 C59.412872,6.72003256 56.9007983,5.32159535 54.2450195,5.32159535 L28.4163861,5.32159535 C23.2959393,5.32159535 18.7713579,8.75356512 17.4129631,13.6688349 L17.2124989,14.3964116 C16.6878482,16.2917512 15.880039,19.5474349 15.8458134,19.6852047 C15.728256,20.1588279 15.8362473,20.6599628 16.1383254,21.0442791 C16.4406161,21.4283837 16.9034056,21.6529209 17.3936182,21.6529209 L65.7856356,21.6529209 C66.3632191,21.6529209 66.8957354,21.3420395 67.1774056,20.8400581 C67.4592885,20.3380767 67.446321,19.7237209 67.1436052,19.234014 L60.8012408,8.9711186 L60.8012408,8.9711186 Z M42.3785163,8.49580233 L42.3785163,18.4780791 L27.6989241,18.4780791 L27.6989241,8.52775814 C27.9359523,8.5070186 28.1751063,8.49580233 28.4163861,8.49580233 L42.3785163,8.49580233 L42.3785163,8.49580233 Z M20.2870629,15.2376326 L20.4877397,14.5094209 C21.0957223,12.3095488 22.5848547,10.5225628 24.5102039,9.48389302 L24.5102039,18.4778674 L19.4367375,18.4778674 C19.7056529,17.4214209 20.0340911,16.1520767 20.2870629,15.2376326 L20.2870629,15.2376326 Z M45.5672364,18.4780791 L45.5672364,8.49580233 L54.2450195,8.49580233 C55.8002646,8.49580233 57.271115,9.31437907 58.0846638,10.6332442 L62.9330065,18.4780791 L45.5672364,18.4780791 L45.5672364,18.4780791 Z" id="Shape"></path>
                    </g>
                </g>
            </g>
        </g>
    </g>
</svg>