<?xml version="1.0" encoding="UTF-8" standalone="no"?>
<svg width="100px" height="100px" viewBox="0 0 100 100" version="1.1" xmlns="http://www.w3.org/2000/svg" xmlns:xlink="http://www.w3.org/1999/xlink">
    <!-- Generator: Sketch 39.1 (31720) - http://www.bohemiancoding.com/sketch -->
    <title>high price</title>
    <desc>Created with Sketch.</desc>
    <defs></defs>
    <g id="material" stroke="none" stroke-width="1" fill="none" fill-rule="evenodd">
        <g id="high-price" fill="#C0C0C0">
            <g id="calendar" transform="translate(1.000000, 1.000000)">
                <g id="Capa_1">
                    <g id="Group">
                        <path d="M77.7241379,57.4482759 C66.5436897,57.4482759 57.4482759,66.5436897 57.4482759,77.7241379 C57.4482759,88.9045862 66.5436897,98 77.7241379,98 C88.9045862,98 98,88.9045862 98,77.7241379 C98,66.5436897 88.9045862,57.4482759 77.7241379,57.4482759 L77.7241379,57.4482759 Z M77.7241379,94.6206897 C68.4073793,94.6206897 60.8275862,87.0408966 60.8275862,77.7241379 C60.8275862,68.4073793 68.4073793,60.8275862 77.7241379,60.8275862 C87.0408966,60.8275862 94.6206897,68.4073793 94.6206897,77.7241379 C94.6206897,87.0408966 87.0408966,94.6206897 77.7241379,94.6206897 L77.7241379,94.6206897 Z" id="Shape"></path>
                        <path d="M87.862069,76.0344828 L79.4137931,76.0344828 L79.4137931,67.5862069 C79.4137931,66.6518276 78.6585172,65.8965517 77.7241379,65.8965517 C76.7897586,65.8965517 76.0344828,66.6518276 76.0344828,67.5862069 L76.0344828,77.7241379 C76.0344828,78.6585172 76.7897586,79.4137931 77.7241379,79.4137931 L87.862069,79.4137931 C88.7964483,79.4137931 89.5517241,78.6585172 89.5517241,77.7241379 C89.5517241,76.7897586 88.7964483,76.0344828 87.862069,76.0344828 L87.862069,76.0344828 Z" id="Shape"></path>
                        <path d="M45.6206897,35.4827586 L42.2413793,35.4827586 L30.4137931,35.4827586 L27.0344828,35.4827586 L11.8275862,35.4827586 L11.8275862,50.6896552 L11.8275862,54.0689655 L11.8275862,65.8965517 L11.8275862,69.2758621 L11.8275862,84.4827586 L27.0344828,84.4827586 L30.4137931,84.4827586 L45.6206897,84.4827586 L45.6206897,69.2758621 L45.6206897,65.8965517 L45.6206897,54.0689655 L57.4482759,54.0689655 L60.8275862,54.0689655 L76.0344828,54.0689655 L76.0344828,35.4827586 L60.8275862,35.4827586 L57.4482759,35.4827586 L45.6206897,35.4827586 L45.6206897,35.4827586 Z M60.8275862,38.862069 L72.6551724,38.862069 L72.6551724,50.6896552 L60.8275862,50.6896552 L60.8275862,38.862069 L60.8275862,38.862069 Z M30.4137931,38.862069 L42.2413793,38.862069 L42.2413793,50.6896552 L30.4137931,50.6896552 L30.4137931,38.862069 L30.4137931,38.862069 Z M15.2068966,38.862069 L27.0344828,38.862069 L27.0344828,50.6896552 L15.2068966,50.6896552 L15.2068966,38.862069 L15.2068966,38.862069 Z M15.2068966,54.0689655 L27.0344828,54.0689655 L27.0344828,65.8965517 L15.2068966,65.8965517 L15.2068966,54.0689655 L15.2068966,54.0689655 Z M27.0344828,81.1034483 L15.2068966,81.1034483 L15.2068966,69.2758621 L27.0344828,69.2758621 L27.0344828,81.1034483 L27.0344828,81.1034483 Z M42.2413793,81.1034483 L30.4137931,81.1034483 L30.4137931,69.2758621 L42.2413793,69.2758621 L42.2413793,81.1034483 L42.2413793,81.1034483 Z M42.2413793,65.8965517 L30.4137931,65.8965517 L30.4137931,54.0689655 L42.2413793,54.0689655 L42.2413793,65.8965517 L42.2413793,65.8965517 Z M57.4482759,50.6896552 L45.6206897,50.6896552 L45.6206897,38.862069 L57.4482759,38.862069 L57.4482759,50.6896552 L57.4482759,50.6896552 Z" id="Shape"></path>
                        <path d="M55.7586207,92.9310345 L3.37931034,92.9310345 L3.37931034,27.0344828 L84.4827586,27.0344828 L84.4827586,49 C84.4827586,49.9343793 85.2380345,50.6896552 86.1724138,50.6896552 C87.1067931,50.6896552 87.862069,49.9343793 87.862069,49 L87.862069,25.3448276 L87.862069,8.44827586 C87.862069,7.51389655 87.1067931,6.75862069 86.1724138,6.75862069 L77.7241379,6.75862069 L77.7241379,1.68965517 C77.7241379,0.755275862 76.9688621,0 76.0344828,0 L64.2068966,0 C63.2725172,0 62.5172414,0.755275862 62.5172414,1.68965517 L62.5172414,6.75862069 L25.3448276,6.75862069 L25.3448276,1.68965517 C25.3448276,0.755275862 24.5895517,0 23.6551724,0 L11.8275862,0 C10.8932069,0 10.137931,0.755275862 10.137931,1.68965517 L10.137931,6.75862069 L1.68965517,6.75862069 C0.755275862,6.75862069 0,7.51389655 0,8.44827586 L0,25.3448276 L0,94.6206897 C0,95.555069 0.755275862,96.3103448 1.68965517,96.3103448 L55.7586207,96.3103448 C56.693,96.3103448 57.4482759,95.555069 57.4482759,94.6206897 C57.4482759,93.6863103 56.693,92.9310345 55.7586207,92.9310345 L55.7586207,92.9310345 Z M65.8965517,3.37931034 L74.3448276,3.37931034 L74.3448276,8.44827586 L74.3448276,13.5172414 L65.8965517,13.5172414 L65.8965517,8.44827586 L65.8965517,3.37931034 L65.8965517,3.37931034 Z M13.5172414,3.37931034 L21.9655172,3.37931034 L21.9655172,8.44827586 L21.9655172,13.5172414 L13.5172414,13.5172414 L13.5172414,8.44827586 L13.5172414,3.37931034 L13.5172414,3.37931034 Z M3.37931034,10.137931 L10.137931,10.137931 L10.137931,15.2068966 C10.137931,16.1412759 10.8932069,16.8965517 11.8275862,16.8965517 L23.6551724,16.8965517 C24.5895517,16.8965517 25.3448276,16.1412759 25.3448276,15.2068966 L25.3448276,10.137931 L62.5172414,10.137931 L62.5172414,15.2068966 C62.5172414,16.1412759 63.2725172,16.8965517 64.2068966,16.8965517 L76.0344828,16.8965517 C76.9688621,16.8965517 77.7241379,16.1412759 77.7241379,15.2068966 L77.7241379,10.137931 L84.4827586,10.137931 L84.4827586,23.6551724 L3.37931034,23.6551724 L3.37931034,10.137931 L3.37931034,10.137931 Z" id="Shape"></path>
                    </g>
                </g>
            </g>
        </g>
    </g>
</svg>