<?xml version="1.0" encoding="UTF-8" standalone="no"?>
<svg width="95px" height="95px" viewBox="0 0 95 95" version="1.1" xmlns="http://www.w3.org/2000/svg" xmlns:xlink="http://www.w3.org/1999/xlink">
    <!-- Generator: Sketch 39.1 (31720) - http://www.bohemiancoding.com/sketch -->
    <title>Group</title>
    <desc>Created with Sketch.</desc>
    <defs></defs>
    <g id="material" stroke="none" stroke-width="1" fill="none" fill-rule="evenodd">
        <g id="Artboard-4" transform="translate(-3.000000, -3.000000)" fill="#424242">
            <g id="loupe" transform="translate(3.000000, 3.000000)">
                <g id="Group">
                    <path d="M62.1392134,0 C44.1326185,0 29.4829634,14.6810907 29.4829634,32.7267819 C29.4829634,40.1519654 31.9648384,47.0061231 36.1384914,52.5036069 L29.5230927,59.1332937 C29.4811207,59.1753564 29.4428341,59.219676 29.4065948,59.2652268 C28.8650539,59.1521706 28.3085668,59.0928726 27.7426616,59.0928726 C25.5826401,59.0928726 23.5516056,59.9359719 22.0236207,61.467257 L2.36865302,81.164676 C0.841077586,82.6951404 0,84.7303564 0,86.8952484 C0,89.0601404 0.841077586,91.0955616 2.36844828,92.6256156 C3.89643319,94.1569006 5.92746767,95 8.08748922,95 C10.2475108,95 12.2785453,94.1569006 13.8065302,92.6256156 L33.4614978,72.9281965 C34.9890733,71.3979374 35.8301509,69.3627214 35.8301509,67.1976242 C35.8301509,66.6302916 35.7709806,66.0723974 35.6581681,65.5296868 C35.7036207,65.4935745 35.7476401,65.4552052 35.7896121,65.4131425 L42.404806,58.7836609 C47.8906466,62.9665335 54.7300323,65.4535637 62.1392134,65.4535637 C80.1458082,65.4535637 94.7954634,50.772473 94.7954634,32.7267819 C94.7954634,14.6810907 80.1458082,0 62.1392134,0 L62.1392134,0 Z M11.6346336,90.4494384 C10.6868858,91.3992333 9.42731681,91.9222462 8.08748922,91.9222462 C6.74766164,91.9222462 5.48809267,91.3992333 4.54014009,90.4492333 C3.59280172,89.5002592 3.07112069,88.2381749 3.07112069,86.8952484 C3.07112069,85.5523218 3.59280172,84.2902376 4.54034483,83.3410583 L22.2910129,65.5520518 L29.3846875,72.6610475 L11.6346336,90.4494384 L11.6346336,90.4494384 Z M31.545528,70.4739957 L24.4762177,63.3894168 C25.4129095,62.5818143 26.5764547,62.1734989 27.7426616,62.1734989 C29.0272091,62.1734989 30.3121659,62.6636825 31.2900108,63.6438445 C32.2373491,64.5928186 32.7590302,65.8549028 32.7590302,67.1978294 C32.7590302,68.4137473 32.3298922,69.5627754 31.545528,70.4739957 L31.545528,70.4739957 Z M34.3412716,62.512257 C34.0796121,62.1437473 33.7872414,61.7934989 33.4617026,61.4674622 C33.1357543,61.1410151 32.7858513,60.8478078 32.417931,60.585378 L38.1181358,54.8728618 C38.7323599,55.5415551 39.3740194,56.1846004 40.0412716,56.8001512 L34.3412716,62.512257 L34.3412716,62.512257 Z M62.1392134,62.3758099 C45.8258297,62.3758099 32.5540841,49.0753996 32.5540841,32.7267819 C32.5540841,16.3781641 45.8258297,3.07775378 62.1392134,3.07775378 C78.452597,3.07775378 91.7243427,16.3781641 91.7243427,32.7267819 C91.7243427,49.0753996 78.452597,62.3758099 62.1392134,62.3758099 L62.1392134,62.3758099 Z" id="Shape"></path>
                    <path d="M62.1392134,6.56587473 C47.7450754,6.56587473 36.0346875,18.3015551 36.0346875,32.7267819 C36.0346875,47.1520086 47.7450754,58.887689 62.1392134,58.887689 C76.5333513,58.887689 88.2437392,47.1520086 88.2437392,32.7267819 C88.2437392,18.3015551 76.5333513,6.56587473 62.1392134,6.56587473 L62.1392134,6.56587473 Z M62.1392134,55.8099352 C49.4386961,55.8099352 39.1058082,45.4549352 39.1058082,32.7267819 C39.1058082,19.9986285 49.4386961,9.64362851 62.1392134,9.64362851 C74.8397306,9.64362851 85.1726185,19.9986285 85.1726185,32.7267819 C85.1726185,45.4549352 74.8397306,55.8099352 62.1392134,55.8099352 L62.1392134,55.8099352 Z" id="Shape"></path>
                    <path d="M72.8019397,16.2993737 C72.0914871,15.8352484 71.1402586,16.0361231 70.6771336,16.7483153 C70.2140086,17.4603024 70.4146552,18.4137905 71.1251078,18.8777106 C75.8185991,21.9431533 78.6206897,27.1203456 78.6206897,32.7267819 C78.6206897,36.5569438 77.2829095,40.2898488 74.853653,43.2375162 C74.3135453,43.8926674 74.4058836,44.8627754 75.0598276,45.4040497 C75.346056,45.6410367 75.6924784,45.7563499 76.0368534,45.7563499 C76.4790948,45.7563499 76.9180603,45.5657343 77.2216918,45.1974298 C80.1042457,41.6996652 81.6918103,37.2707775 81.6918103,32.726987 C81.6920151,26.0761663 78.368653,19.9352268 72.8019397,16.2993737 L72.8019397,16.2993737 Z" id="Shape"></path>
                    <path d="M65.6925,13.4549136 C64.527931,13.2404968 63.3324461,13.1317495 62.1392134,13.1317495 C61.2909698,13.1317495 60.603653,13.8207559 60.603653,14.6706263 C60.603653,15.5204968 61.2909698,16.2095032 62.1392134,16.2095032 C63.1469504,16.2095032 64.1557112,16.3012203 65.1376509,16.481987 C65.2316272,16.4992225 65.3247845,16.507635 65.4169181,16.507635 C66.1435453,16.507635 66.7892996,15.9883153 66.9254526,15.2465767 C67.0785991,14.4106587 66.5266164,13.6085961 65.6925,13.4549136 L65.6925,13.4549136 Z" id="Shape"></path>
                </g>
            </g>
        </g>
    </g>
</svg>