<?xml version="1.0" encoding="UTF-8" standalone="no"?>
<svg width="100px" height="100px" viewBox="0 0 100 100" version="1.1" xmlns="http://www.w3.org/2000/svg" xmlns:xlink="http://www.w3.org/1999/xlink">
    <!-- Generator: Sketch 39.1 (31720) - http://www.bohemiancoding.com/sketch -->
    <title>high price copy 2</title>
    <desc>Created with Sketch.</desc>
    <defs></defs>
    <g id="material" stroke="none" stroke-width="1" fill="none" fill-rule="evenodd">
        <g id="high-price-copy-2" fill="#C0C0C0">
            <g id="notification" transform="translate(1.000000, 2.000000)">
                <g id="Capa_1">
                    <g id="Group">
                        <path d="M95.3266063,64.0557323 L85.3452677,64.0557323 L85.3452677,45.8670866 C85.3452677,26.6617874 70.303811,10.9057795 51.383252,9.75447244 L51.383252,2.3462126 C51.383252,1.0679685 50.3465354,0.0312519685 49.0682913,0.0312519685 C47.7900472,0.0312519685 46.7533307,1.0679685 46.7533307,2.3462126 L46.7533307,9.72707874 C27.6005039,10.630685 12.296685,26.4951102 12.296685,45.8674724 L12.296685,57.6949921 C12.296685,58.9732362 13.3334016,60.0099528 14.6116457,60.0099528 C15.8898898,60.0099528 16.9266063,58.9732362 16.9266063,57.6949921 L16.9266063,45.8670866 C16.9266063,28.469 31.0810472,14.3145591 48.478748,14.3145591 L49.1628189,14.3145591 C66.5609055,14.3145591 80.7153465,28.4693858 80.7153465,45.8670866 L80.7153465,64.0557323 L2.31496063,64.0557323 C1.03671654,64.0557323 0,65.0924488 0,66.3706929 L0,79.7928346 C0,81.0710787 1.03671654,82.1077953 2.31496063,82.1077953 L95.3266063,82.1077953 C96.6048504,82.1077953 97.6415669,81.0710787 97.6415669,79.7928346 L97.6415669,66.3706929 C97.6415669,65.092063 96.6052362,64.0557323 95.3266063,64.0557323 L95.3266063,64.0557323 Z M93.0116457,77.477874 L4.62992126,77.477874 L4.62992126,68.6856535 L93.0116457,68.6856535 L93.0116457,77.477874 L93.0116457,77.477874 Z" id="Shape"></path>
                        <path d="M57.1687244,83.9447165 C55.8904803,83.9447165 54.8537638,84.9814331 54.8537638,86.2596772 C54.8537638,89.5403622 52.185,92.209126 48.904315,92.209126 L48.737252,92.209126 C45.4569528,92.209126 42.788189,89.5403622 42.788189,86.2596772 C42.788189,84.9814331 41.7514724,83.9447165 40.4732283,83.9447165 C39.1949843,83.9447165 38.1582677,84.9814331 38.1582677,86.2596772 C38.1582677,92.0929921 42.903937,96.8390472 48.737252,96.8390472 L48.904315,96.8390472 C54.7380157,96.8390472 59.483685,92.0929921 59.483685,86.2596772 C59.483685,84.9810472 58.4469685,83.9447165 57.1687244,83.9447165 L57.1687244,83.9447165 Z" id="Shape"></path>
                    </g>
                </g>
            </g>
        </g>
    </g>
</svg>