<?xml version="1.0" encoding="UTF-8" standalone="no"?>
<svg width="100px" height="100px" viewBox="0 0 100 100" version="1.1" xmlns="http://www.w3.org/2000/svg" xmlns:xlink="http://www.w3.org/1999/xlink">
    <!-- Generator: Sketch 39.1 (31720) - http://www.bohemiancoding.com/sketch -->
    <title>Artboard 4 Copy 3</title>
    <desc>Created with Sketch.</desc>
    <defs></defs>
    <g id="material" stroke="none" stroke-width="1" fill="none" fill-rule="evenodd">
        <g id="Artboard-4-Copy-3" fill="#424242">
            <g id="smartphone" transform="translate(22.000000, 1.000000)">
                <g id="Capa_1">
                    <g id="Group">
                        <path d="M48.3385,0 L7.19483333,0 C3.22746667,0 0,3.2291 0,7.19483333 L0,90.8035333 C0,94.7709 3.22746667,98 7.19483333,98 L48.3368667,98 C52.3058667,98 55.5333333,94.7709 55.5333333,90.8051667 L55.5333333,7.19483333 C55.5333333,3.2291 52.3058667,0 48.3385,0 L48.3385,0 Z M3.26666667,13.0666667 L52.2666667,13.0666667 L52.2666667,75.1333333 L3.26666667,75.1333333 L3.26666667,13.0666667 L3.26666667,13.0666667 Z M7.19483333,3.26666667 L48.3368667,3.26666667 C50.5043,3.26666667 52.2666667,5.02903333 52.2666667,7.19483333 L52.2666667,9.8 L3.26666667,9.8 L3.26666667,7.19483333 C3.26666667,5.02903333 5.02903333,3.26666667 7.19483333,3.26666667 L7.19483333,3.26666667 Z M48.3385,94.7333333 L7.19483333,94.7333333 C5.02903333,94.7333333 3.26666667,92.9709667 3.26666667,90.8051667 L3.26666667,78.4 L52.2666667,78.4 L52.2666667,90.8051667 C52.2666667,92.9709667 50.5043,94.7333333 48.3385,94.7333333 L48.3385,94.7333333 Z" id="Shape"></path>
                        <path d="M27.7666667,80.0333333 C24.1635333,80.0333333 21.2333333,82.9635333 21.2333333,86.5666667 C21.2333333,90.1698 24.1635333,93.1 27.7666667,93.1 C31.3698,93.1 34.3,90.1698 34.3,86.5666667 C34.3,82.9635333 31.3698,80.0333333 27.7666667,80.0333333 L27.7666667,80.0333333 Z M27.7666667,89.8333333 C25.9651,89.8333333 24.5,88.3682333 24.5,86.5666667 C24.5,84.7651 25.9651,83.3 27.7666667,83.3 C29.5682333,83.3 31.0333333,84.7651 31.0333333,86.5666667 C31.0333333,88.3682333 29.5682333,89.8333333 27.7666667,89.8333333 L27.7666667,89.8333333 Z" id="Shape"></path>
                        <path d="M21.2333333,8.16666667 L27.7666667,8.16666667 C28.6682667,8.16666667 29.4,7.43656667 29.4,6.53333333 C29.4,5.6301 28.6682667,4.9 27.7666667,4.9 L21.2333333,4.9 C20.3317333,4.9 19.6,5.6301 19.6,6.53333333 C19.6,7.43656667 20.3317333,8.16666667 21.2333333,8.16666667 L21.2333333,8.16666667 Z" id="Shape"></path>
                        <path d="M32.6666667,8.16666667 L34.3,8.16666667 C35.2016,8.16666667 35.9333333,7.43656667 35.9333333,6.53333333 C35.9333333,5.6301 35.2016,4.9 34.3,4.9 L32.6666667,4.9 C31.7650667,4.9 31.0333333,5.6301 31.0333333,6.53333333 C31.0333333,7.43656667 31.7650667,8.16666667 32.6666667,8.16666667 L32.6666667,8.16666667 Z" id="Shape"></path>
                        <path d="M30.9712667,17.9993333 L24.5620667,17.9993333 C22.7262,17.9993333 21.2333333,19.4922 21.2333333,21.3280667 L21.2333333,27.7372667 C21.2333333,29.5731333 22.7262,31.066 24.5620667,31.066 L30.9712667,31.066 C32.8071333,31.066 34.3,29.5731333 34.3,27.7372667 L34.3,21.3280667 C34.3,19.4922 32.8071333,17.9993333 30.9712667,17.9993333 L30.9712667,17.9993333 Z M31.0333333,27.7356333 C31.0333333,27.7699333 31.0055667,27.7977 30.9712667,27.7977 L24.5,27.7356333 L24.5620667,21.2643667 L31.0333333,21.3280667 L31.0333333,27.7356333 L31.0333333,27.7356333 Z" id="Shape"></path>
                        <path d="M16.2712667,17.9993333 L9.86206667,17.9993333 C8.0262,17.9993333 6.53333333,19.4922 6.53333333,21.3280667 L6.53333333,27.7372667 C6.53333333,29.5731333 8.0262,31.066 9.86206667,31.066 L16.2712667,31.066 C18.1071333,31.066 19.6,29.5731333 19.6,27.7372667 L19.6,21.3280667 C19.6,19.4922 18.1071333,17.9993333 16.2712667,17.9993333 L16.2712667,17.9993333 Z M16.3333333,27.7356333 C16.3333333,27.7699333 16.3055667,27.7977 16.2712667,27.7977 L9.8,27.7356333 L9.86206667,21.2643667 L16.3333333,21.3280667 L16.3333333,27.7356333 L16.3333333,27.7356333 Z" id="Shape"></path>
                        <path d="M45.6712667,17.9993333 L39.2620667,17.9993333 C37.4262,17.9993333 35.9333333,19.4922 35.9333333,21.3280667 L35.9333333,27.7372667 C35.9333333,29.5731333 37.4262,31.066 39.2620667,31.066 L45.6712667,31.066 C47.5071333,31.066 49,29.5731333 49,27.7372667 L49,21.3280667 C49,19.4922 47.5071333,17.9993333 45.6712667,17.9993333 L45.6712667,17.9993333 Z M45.7333333,27.7356333 C45.7333333,27.7699333 45.7055667,27.7977 45.6712667,27.7977 L39.2,27.7356333 L39.2620667,21.2643667 L45.7333333,21.3280667 L45.7333333,27.7356333 L45.7333333,27.7356333 Z" id="Shape"></path>
                        <path d="M30.9712667,32.6666667 L24.5620667,32.6666667 C22.7262,32.6666667 21.2333333,34.1595333 21.2333333,35.9954 L21.2333333,42.4046 C21.2333333,44.2404667 22.7262,45.7333333 24.5620667,45.7333333 L30.9712667,45.7333333 C32.8071333,45.7333333 34.3,44.2404667 34.3,42.4046 L34.3,35.9954 C34.3,34.1595333 32.8071333,32.6666667 30.9712667,32.6666667 L30.9712667,32.6666667 Z M31.0333333,42.4046 C31.0333333,42.4372667 31.0055667,42.4666667 30.9712667,42.4666667 L24.5,42.4046 L24.5620667,35.9333333 L31.0333333,35.9954 L31.0333333,42.4046 L31.0333333,42.4046 Z" id="Shape"></path>
                        <path d="M16.2712667,32.6666667 L9.86206667,32.6666667 C8.0262,32.6666667 6.53333333,34.1595333 6.53333333,35.9954 L6.53333333,42.4046 C6.53333333,44.2404667 8.0262,45.7333333 9.86206667,45.7333333 L16.2712667,45.7333333 C18.1071333,45.7333333 19.6,44.2404667 19.6,42.4046 L19.6,35.9954 C19.6,34.1595333 18.1071333,32.6666667 16.2712667,32.6666667 L16.2712667,32.6666667 Z M16.3333333,42.4046 C16.3333333,42.4372667 16.3055667,42.4666667 16.2712667,42.4666667 L9.8,42.4046 L9.86206667,35.9333333 L16.3333333,35.9954 L16.3333333,42.4046 L16.3333333,42.4046 Z" id="Shape"></path>
                        <path d="M45.6712667,32.6666667 L39.2620667,32.6666667 C37.4262,32.6666667 35.9333333,34.1595333 35.9333333,35.9954 L35.9333333,42.4046 C35.9333333,44.2404667 37.4262,45.7333333 39.2620667,45.7333333 L45.6712667,45.7333333 C47.5071333,45.7333333 49,44.2404667 49,42.4046 L49,35.9954 C49,34.1595333 47.5071333,32.6666667 45.6712667,32.6666667 L45.6712667,32.6666667 Z M45.7333333,42.4046 C45.7333333,42.4372667 45.7055667,42.4666667 45.6712667,42.4666667 L39.2,42.4046 L39.2620667,35.9333333 L45.7333333,35.9954 L45.7333333,42.4046 L45.7333333,42.4046 Z" id="Shape"></path>
                        <path d="M30.9712667,47.3666667 L24.5620667,47.3666667 C22.7262,47.3666667 21.2333333,48.8595333 21.2333333,50.6954 L21.2333333,57.1046 C21.2333333,58.9404667 22.7262,60.4333333 24.5620667,60.4333333 L30.9712667,60.4333333 C32.8071333,60.4333333 34.3,58.9404667 34.3,57.1046 L34.3,50.6954 C34.3,48.8595333 32.8071333,47.3666667 30.9712667,47.3666667 L30.9712667,47.3666667 Z M31.0333333,57.1046 C31.0333333,57.1372667 31.0055667,57.1666667 30.9712667,57.1666667 L24.5,57.1046 L24.5620667,50.6333333 L31.0333333,50.6954 L31.0333333,57.1046 L31.0333333,57.1046 Z" id="Shape"></path>
                        <path d="M16.2712667,47.3666667 L9.86206667,47.3666667 C8.0262,47.3666667 6.53333333,48.8595333 6.53333333,50.6954 L6.53333333,57.1046 C6.53333333,58.9404667 8.0262,60.4333333 9.86206667,60.4333333 L16.2712667,60.4333333 C18.1071333,60.4333333 19.6,58.9404667 19.6,57.1046 L19.6,50.6954 C19.6,48.8595333 18.1071333,47.3666667 16.2712667,47.3666667 L16.2712667,47.3666667 Z M16.3333333,57.1046 C16.3333333,57.1372667 16.3055667,57.1666667 16.2712667,57.1666667 L9.8,57.1046 L9.86206667,50.6333333 L16.3333333,50.6954 L16.3333333,57.1046 L16.3333333,57.1046 Z" id="Shape"></path>
                        <path d="M45.6712667,47.3666667 L39.2620667,47.3666667 C37.4262,47.3666667 35.9333333,48.8595333 35.9333333,50.6954 L35.9333333,57.1046 C35.9333333,58.9404667 37.4262,60.4333333 39.2620667,60.4333333 L45.6712667,60.4333333 C47.5071333,60.4333333 49,58.9404667 49,57.1046 L49,50.6954 C49,48.8595333 47.5071333,47.3666667 45.6712667,47.3666667 L45.6712667,47.3666667 Z M45.7333333,57.1046 C45.7333333,57.1372667 45.7055667,57.1666667 45.6712667,57.1666667 L39.2,57.1046 L39.2620667,50.6333333 L45.7333333,50.6954 L45.7333333,57.1046 L45.7333333,57.1046 Z" id="Shape"></path>
                    </g>
                </g>
            </g>
        </g>
    </g>
</svg>