<?xml version="1.0" encoding="UTF-8" standalone="no"?>
<svg width="98px" height="98px" viewBox="0 0 98 98" version="1.1" xmlns="http://www.w3.org/2000/svg" xmlns:xlink="http://www.w3.org/1999/xlink">
    <!-- Generator: Sketch 39.1 (31720) - http://www.bohemiancoding.com/sketch -->
    <title>picture</title>
    <desc>Created with Sketch.</desc>
    <defs></defs>
    <g id="material" stroke="none" stroke-width="1" fill="none" fill-rule="evenodd">
        <g id="Artboard-4-Copy-2" transform="translate(-1.000000, -1.000000)" fill="#424242">
            <g id="picture" transform="translate(1.000000, 1.000000)">
                <g id="Capa_1">
                    <g id="Group">
                        <path d="M0,87.56 C0,93.26 4.64,97.88 10.32,97.88 L87.56,97.88 C93.26,97.88 97.88,93.24 97.88,87.56 L97.88,10.32 C97.88,4.62 93.24,0 87.56,0 L10.32,0 C4.62,0 0,4.64 0,10.32 L0,87.56 L0,87.56 Z M87.56,92.98 L10.32,92.98 C7.34,92.98 4.9,90.54 4.9,87.56 L4.9,74.66 L23.46,56.1 L39.32,71.96 C40.28,72.92 41.82,72.92 42.78,71.96 L71.42,43.32 L92.98,64.88 L92.98,87.56 C92.98,90.54 90.54,92.98 87.56,92.98 L87.56,92.98 Z M10.32,4.9 L87.56,4.9 C90.54,4.9 92.98,7.34 92.98,10.32 L92.98,57.94 L73.14,38.12 C72.18,37.16 70.64,37.16 69.68,38.12 L41.04,66.76 L25.18,50.9 C24.22,49.94 22.68,49.94 21.72,50.9 L4.9,67.72 L4.9,10.32 C4.9,7.34 7.34,4.9 10.32,4.9 L10.32,4.9 Z" id="Shape"></path>
                        <path d="M30.34,39.22 C37.22,39.22 42.8,33.62 42.8,26.76 C42.8,19.9 37.2,14.3 30.34,14.3 C23.48,14.3 17.88,19.9 17.88,26.76 C17.88,33.62 23.46,39.22 30.34,39.22 L30.34,39.22 Z M30.34,19.2 C34.52,19.2 37.9,22.6 37.9,26.76 C37.9,30.92 34.5,34.32 30.34,34.32 C26.18,34.32 22.78,30.92 22.78,26.76 C22.78,22.6 26.16,19.2 30.34,19.2 L30.34,19.2 Z" id="Shape"></path>
                    </g>
                </g>
            </g>
        </g>
    </g>
</svg>