<?xml version="1.0" encoding="UTF-8" standalone="no"?>
<svg width="68px" height="98px" viewBox="0 0 68 98" version="1.1" xmlns="http://www.w3.org/2000/svg" xmlns:xlink="http://www.w3.org/1999/xlink">
    <!-- Generator: Sketch 39.1 (31720) - http://www.bohemiancoding.com/sketch -->
    <title>padlock</title>
    <desc>Created with Sketch.</desc>
    <defs></defs>
    <g id="material" stroke="none" stroke-width="1" fill="none" fill-rule="evenodd">
        <g id="magnify-copy" transform="translate(-16.000000, -1.000000)" fill="#C0C0C0">
            <g id="padlock" transform="translate(16.000000, 1.000000)">
                <g id="Group">
                    <path d="M60.7388366,37.4057322 L60.7388366,26.987041 C60.7388366,12.1062808 48.6342426,0 33.7555556,0 C18.8768685,0 6.77227447,12.1062808 6.77227447,26.987041 L6.77227447,37.4057322 C2.9194852,38.1497279 0,41.5460734 0,45.6133909 L0,64.2397408 C0,82.8552959 15.1428057,98 33.7555556,98 C52.3683054,98 67.5111111,82.8552959 67.5111111,64.2397408 L67.5111111,45.6133909 C67.5111111,41.5460734 64.5916259,38.1497279 60.7388366,37.4057322 L60.7388366,37.4057322 Z M33.7555556,3.174946 C46.8836096,3.174946 57.564333,13.856946 57.564333,26.987041 L57.564333,37.2526998 L53.9665622,37.2526998 L53.9665622,26.987041 C53.9665622,15.8410756 44.8999681,6.77321814 33.7555556,6.77321814 C22.611143,6.77321814 13.5445489,15.8410756 13.5445489,26.987041 L13.5445489,37.2526998 L9.94677813,37.2526998 L9.94677813,26.987041 C9.94677813,13.856946 20.6275015,3.174946 33.7555556,3.174946 L33.7555556,3.174946 Z M16.7190526,37.2526998 L16.7190526,26.987041 C16.7190526,17.5917408 24.3615643,9.94816415 33.7555556,9.94816415 C43.1495468,9.94816415 50.7920585,17.5917408 50.7920585,26.987041 L50.7920585,37.2526998 L16.7190526,37.2526998 L16.7190526,37.2526998 Z M64.3366075,64.2397408 C64.3366075,81.1046307 50.6180957,94.825054 33.7555556,94.825054 C16.8930154,94.825054 3.17450366,81.1046307 3.17450366,64.2397408 L3.17450366,45.6133909 C3.17450366,42.7540346 5.50035667,40.4276458 8.3595263,40.4276458 L59.1515848,40.4276458 C62.0107544,40.4276458 64.3366075,42.7540346 64.3366075,45.6133909 L64.3366075,64.2397408 L64.3366075,64.2397408 Z" id="Shape"></path>
                    <path d="M42.1150819,62.5464363 C42.1150819,59.9810799 40.9621021,57.5937322 38.9515831,55.9967343 C36.9402176,54.3988898 34.3227335,53.822743 31.771914,54.4160346 C28.7819549,55.1109244 26.3788556,57.4872657 25.6495663,60.4704449 C24.8432424,63.7690022 26.0389721,67.1200518 28.649049,69.1327559 L27.4057017,77.284324 C27.2607327,78.2332095 27.5371262,79.1943715 28.1637732,79.9212225 C28.7878806,80.6453218 29.6928258,81.0599698 30.6481397,81.0599698 L30.6602029,81.0599698 L36.875881,81.0375335 C37.8314066,81.0339352 38.7355053,80.6154773 39.3566498,79.889473 C39.9777944,79.1634687 40.2512249,78.2050583 40.1066792,77.2606177 L38.8622738,69.130851 C40.8916281,67.5573477 42.1150819,65.1225875 42.1150819,62.5464363 L42.1150819,62.5464363 Z M36.3434109,67.0080821 C35.7798307,67.3361598 35.4742318,67.975594 35.5726414,68.6203197 L36.9685765,77.7404579 C36.9706929,77.7537927 36.9757721,77.7885054 36.9444503,77.8251231 C36.9129169,77.8619525 36.8777857,77.8621641 36.8644528,77.8621641 L30.6489863,77.8846004 C30.6312091,77.8846004 30.5998873,77.8843888 30.5683539,77.8479827 C30.5368205,77.8111533 30.5418997,77.7762289 30.544016,77.7628942 L31.9386813,68.619473 C32.0370909,67.9751706 31.731492,67.3359482 31.1679118,67.0080821 C29.1214151,65.817054 28.1656779,63.5465443 28.7332791,61.2241771 C29.1741119,59.4214428 30.6839058,57.9281598 32.49041,57.5082203 C32.9200262,57.4083153 33.3473144,57.3589978 33.7667721,57.3589978 C34.9356244,57.3589978 36.0450076,57.742108 36.9772535,58.4825054 C38.2250451,59.4737235 38.9405782,60.9549417 38.9405782,62.5462246 C38.9405782,64.3936199 37.9696033,66.0615248 36.3434109,67.0080821 L36.3434109,67.0080821 Z" id="Shape"></path>
                </g>
            </g>
        </g>
    </g>
</svg>