<?xml version="1.0" encoding="UTF-8" standalone="no"?>
<svg width="210px" height="62px" viewBox="0 0 210 62" version="1.1" xmlns="http://www.w3.org/2000/svg" xmlns:xlink="http://www.w3.org/1999/xlink">
    <!-- Generator: Sketch 39 (31667) - http://www.bohemiancoding.com/sketch -->
    <title>Artboard 2</title>
    <desc>Created with Sketch.</desc>
    <defs>
        <polygon id="path-1" points="0 33.1757576 204 33.1757576 204 0 0 0"></polygon>
    </defs>
    <g id="material" stroke="none" stroke-width="1" fill="none" fill-rule="evenodd">
        <g id="Artboard-2">
            <g id="Page-1" transform="translate(3.000000, 14.000000)">
                <path d="M9.996,15.5575758 L17.442,4.22424242 C17.646,3.91515152 17.85,3.60606061 18.156,3.2969697 C18.462,2.98787879 18.768,2.78181818 19.074,2.57575758 C19.38,2.36969697 19.686,2.16363636 20.094,2.06060606 C20.4,1.95757576 20.808,1.85454545 21.216,1.85454545 L27.54,1.85454545 L18.258,16.0727273 C18.054,16.3818182 17.85,16.5878788 17.544,16.7939394 C17.238,17 17.136,17 17.034,17.1030303 C17.034,17.1030303 17.136,17.1030303 17.238,17.2060606 C17.34,17.2060606 17.442,17.3090909 17.544,17.4121212 C17.646,17.5151515 17.748,17.6181818 17.952,17.7212121 C18.054,17.8242424 18.156,17.9272727 18.258,18.1333333 L28.152,32.969697 L21.828,32.969697 C21.012,32.969697 20.298,32.7636364 19.686,32.3515152 C19.074,31.9393939 18.564,31.3212121 18.054,30.6 L9.996,18.3393939 C9.792,18.1333333 9.69,17.9272727 9.486,17.7212121 C9.282,17.5151515 9.18,17.4121212 8.976,17.3090909 C8.772,17.2060606 8.67,17.1030303 8.568,17.1030303 C8.466,17.1030303 8.364,17 8.364,17 C8.364,17 8.466,17 8.568,16.8969697 C8.67,16.8969697 8.874,16.7939394 8.976,16.6909091 C9.18,16.5878788 9.282,16.4848485 9.486,16.2787879 C9.69,16.0727273 9.894,15.8666667 9.996,15.5575758 L9.996,15.5575758 Z M0,32.969697 L7.038,32.969697 L7.038,1.85454545 L0,1.85454545 L0,32.969697 L0,32.969697 Z" id="Fill-1" fill="#212121"></path>
                <path d="M45.39,20.2969697 L52.02,20.2969697 L49.368,13.8060606 C49.266,13.4969697 49.164,13.1878788 49.062,12.9818182 C48.96,12.6727273 48.96,12.4666667 48.858,12.2606061 C48.756,12.0545455 48.756,11.8484848 48.756,11.6424242 C48.756,11.8484848 48.654,12.0545455 48.654,12.3636364 C48.654,12.569697 48.552,12.7757576 48.45,13.0848485 C48.348,13.3939394 48.246,13.6 48.144,13.9090909 L45.39,20.2969697 Z M45.594,1.85454545 L51.714,1.85454545 L65.28,32.969697 L60.69,32.969697 C60.18,32.969697 59.772,32.8666667 59.364,32.7636364 C58.956,32.6606061 58.548,32.4545455 58.14,32.2484848 C57.732,32.0424242 57.426,31.7333333 57.12,31.4242424 C56.814,31.1151515 56.61,30.7030303 56.406,30.2909091 L54.876,26.7878788 L42.534,26.7878788 L41.106,30.1878788 C40.902,30.6 40.698,30.9090909 40.392,31.3212121 C40.086,31.630303 39.78,31.9393939 39.372,32.2484848 L38.148,32.8666667 C37.536,32.8666667 37.128,32.969697 36.72,32.969697 L32.13,32.969697 L45.594,1.85454545 Z" id="Fill-3" fill="#212121"></path>
                <mask id="mask-2" fill="white">
                    <use xlink:href="#path-1"></use>
                </mask>
                <g id="Clip-6"></g>
                <polygon id="Fill-5" fill="#212121" mask="url(#mask-2)" points="73.338 32.969697 80.376 32.969697 80.376 1.85454545 73.338 1.85454545"></polygon>
                <polygon id="Fill-7" fill="#212121" mask="url(#mask-2)" points="90.168 8.44848485 90.168 1.85454545 114.444 1.85454545 114.444 8.44848485 105.876 8.44848485 105.876 32.969697 98.838 32.969697 98.838 8.44848485"></polygon>
                <path d="M126.582,17.4121212 C126.582,18.6484848 126.786,19.7818182 127.296,20.8121212 C127.806,21.8424242 128.418,22.769697 129.234,23.5939394 C130.05,24.4181818 130.968,25.0363636 132.09,25.4484848 C133.11,25.8606061 134.334,26.169697 135.456,26.169697 C136.68,26.169697 137.802,25.9636364 138.822,25.4484848 C139.944,25.0363636 140.862,24.4181818 141.678,23.5939394 C142.494,22.769697 143.106,21.8424242 143.616,20.8121212 C144.126,19.7818182 144.33,18.6484848 144.33,17.4121212 C144.33,16.1757576 144.126,15.0424242 143.616,14.0121212 C143.106,12.9818182 142.494,12.0545455 141.678,11.230303 C140.862,10.4060606 139.944,9.78787879 138.822,9.37575758 C137.7,8.96363636 136.578,8.65454545 135.456,8.65454545 C134.232,8.65454545 133.11,8.86060606 132.09,9.37575758 C131.07,9.78787879 130.05,10.5090909 129.234,11.230303 C128.418,12.0545455 127.806,12.9818182 127.296,14.0121212 C126.786,15.0424242 126.582,16.1757576 126.582,17.4121212 M119.544,17.4121212 C119.544,15.969697 119.748,14.5272727 120.156,13.1878788 C120.564,11.8484848 121.074,10.6121212 121.788,9.37575758 C122.502,8.13939394 123.318,7.10909091 124.236,6.18181818 C125.154,5.25454545 126.276,4.43030303 127.5,3.70909091 C128.724,2.98787879 129.948,2.47272727 131.274,2.16363636 C132.6,1.75151515 134.028,1.64848485 135.456,1.64848485 C136.884,1.64848485 138.312,1.85454545 139.638,2.16363636 C140.964,2.57575758 142.29,3.09090909 143.412,3.70909091 C144.636,4.43030303 145.656,5.25454545 146.676,6.18181818 C147.594,7.10909091 148.512,8.24242424 149.124,9.37575758 C149.838,10.5090909 150.348,11.8484848 150.756,13.1878788 C151.164,14.5272727 151.368,15.969697 151.368,17.4121212 C151.368,18.8545455 151.164,20.2969697 150.756,21.6363636 C150.348,22.9757576 149.838,24.2121212 149.124,25.4484848 C148.41,26.5818182 147.594,27.7151515 146.676,28.6424242 C145.758,29.569697 144.636,30.3939394 143.412,31.1151515 C142.188,31.8363636 140.964,32.3515152 139.638,32.6606061 C138.312,33.0727273 136.884,33.1757576 135.456,33.1757576 C134.028,33.1757576 132.6,32.969697 131.274,32.6606061 C129.948,32.2484848 128.622,31.7333333 127.5,31.1151515 C126.276,30.3939394 125.256,29.569697 124.236,28.6424242 C123.318,27.7151515 122.4,26.5818182 121.788,25.4484848 C121.176,24.3151515 120.564,22.9757576 120.156,21.6363636 C119.748,20.2969697 119.544,18.8545455 119.544,17.4121212" id="Fill-8" fill="#212121" mask="url(#mask-2)"></path>
                <path d="M174.216,16.3818182 C174.624,16.3818182 175.032,16.2787879 175.44,16.0727273 C175.848,15.8666667 176.154,15.5575758 176.46,15.2484848 C176.766,14.9393939 176.97,14.5272727 177.174,14.1151515 C177.378,13.7030303 177.48,13.1878788 177.48,12.7757576 C177.48,12.3636364 177.378,11.8484848 177.174,11.4363636 C176.97,11.0242424 176.766,10.6121212 176.46,10.3030303 C176.154,9.99393939 175.746,9.68484848 175.44,9.47878788 C175.032,9.27272727 174.624,9.16969697 174.216,9.16969697 L168.81,9.16969697 L168.81,16.5878788 L174.216,16.5878788 L174.216,16.3818182 Z M168.81,32.969697 L161.772,32.969697 L161.772,1.85454545 L173.91,1.85454545 C175.032,1.85454545 176.154,1.95757576 177.174,2.26666667 C178.194,2.57575758 179.01,2.98787879 179.826,3.5030303 C180.642,4.01818182 181.356,4.63636364 181.968,5.35757576 C182.58,6.07878788 183.09,6.8 183.498,7.62424242 C183.906,8.44848485 184.212,9.27272727 184.416,10.0969697 C184.62,10.9212121 184.722,11.8484848 184.722,12.6727273 C184.722,13.4969697 184.62,14.3212121 184.416,15.1454545 C184.212,15.969697 183.906,16.7939394 183.6,17.5151515 C183.192,18.3393939 182.682,19.0606061 182.07,19.7818182 C181.458,20.5030303 180.744,21.1212121 179.826,21.7393939 L188.088,32.969697 L182.172,32.969697 L182.07,32.969697 C181.968,32.969697 181.764,32.969697 181.458,32.8666667 C181.152,32.8666667 180.846,32.7636364 180.438,32.5575758 C180.03,32.3515152 179.622,32.1454545 179.214,31.8363636 C178.806,31.5272727 178.398,31.1151515 177.99,30.4969697 L172.788,23.4909091 L168.912,23.4909091 L168.912,32.969697 L168.81,32.969697 Z" id="Fill-9" fill="#212121" mask="url(#mask-2)"></path>
                <polygon id="Fill-10" fill="#212121" mask="url(#mask-2)" points="196.962 32.969697 204 32.969697 204 1.85454545 196.962 1.85454545"></polygon>
            </g>
        </g>
    </g>
</svg>